<?xml version="1.0" encoding="UTF-8" standalone="no"?>
<!DOCTYPE svg PUBLIC "-//W3C//DTD SVG 1.1//EN" "http://www.w3.org/Graphics/SVG/1.1/DTD/svg11.dtd">
<svg version="1.1" xmlns="http://www.w3.org/2000/svg" xmlns:xlink="http://www.w3.org/1999/xlink" preserveAspectRatio="xMidYMid meet" viewBox="128 46.37500000000004 40.91999999999996 44.99999999999996" width="40.92" height="45"><defs><path d="M138.84 46.38C132.85 46.38 128 51.23 128 57.22C128 64.05 128 73.7 128 80.53C128 86.52 132.85 91.37 138.84 91.37C144.86 91.38 152.06 91.38 158.08 91.37C164.07 91.37 168.92 86.52 168.92 80.53C168.92 73.7 168.92 64.05 168.92 57.22C168.92 51.23 164.07 46.38 158.08 46.38C152.06 46.38 144.86 46.38 138.84 46.38Z" id="a4kxASPGx"></path><path d="M163.5 81.89C160.93 81.89 159.32 81.89 158.68 81.89C158.46 81.89 158.35 81.62 158.5 81.46C159.5 80.46 161.84 78.13 162.78 77.19C163.04 76.92 163.5 77.11 163.5 77.48C163.5 78.07 163.5 79.54 163.5 81.89Z" id="a4u5tWvzlt"></path><path d="M135.21 53.42C137.78 53.42 139.39 53.42 140.03 53.42C140.25 53.42 140.36 53.69 140.21 53.85C139.21 54.85 136.87 57.18 135.93 58.12C135.67 58.39 135.21 58.2 135.21 57.83C135.21 57.24 135.21 55.77 135.21 53.42Z" id="bm5to8xFG"></path><path d="M138 56.13L160.43 78.94" id="awm2Fg7pm"></path></defs><g><g><g><use xlink:href="#a4kxASPGx" opacity="1" fill="#b9f257" fill-opacity="0.83"></use><g><use xlink:href="#a4kxASPGx" opacity="1" fill-opacity="0" stroke="#0e1107" stroke-width="1" stroke-opacity="1"></use></g></g><g><use xlink:href="#a4u5tWvzlt" opacity="1" fill="#000000" fill-opacity="1"></use><g><use xlink:href="#a4u5tWvzlt" opacity="1" fill-opacity="0" stroke="#000000" stroke-width="1" stroke-opacity="1"></use></g></g><g><use xlink:href="#bm5to8xFG" opacity="1" fill="#000000" fill-opacity="1"></use><g><use xlink:href="#bm5to8xFG" opacity="1" fill-opacity="0" stroke="#000000" stroke-width="1" stroke-opacity="1"></use></g></g><g><g><use xlink:href="#awm2Fg7pm" opacity="1" fill-opacity="0" stroke="#0e1107" stroke-width="1" stroke-opacity="1"></use></g></g></g></g></svg>