<?xml version="1.0" encoding="UTF-8" standalone="no"?>
<!DOCTYPE svg PUBLIC "-//W3C//DTD SVG 1.1//EN" "http://www.w3.org/Graphics/SVG/1.1/DTD/svg11.dtd">
<svg version="1.1" xmlns="http://www.w3.org/2000/svg" xmlns:xlink="http://www.w3.org/1999/xlink" preserveAspectRatio="xMidYMid meet" viewBox="287.8968519758875 477.99999999999994 44.206296048225056 44.00000000000017" width="44.21" height="44"><defs><path d="M309.87 522C297.74 522 287.9 512.16 287.9 500.02C287.9 487.9 297.74 478.06 309.87 478.06C321.99 478.06 331.85 487.9 331.85 500.02C331.85 512.16 321.99 522 309.87 522Z" id="ah5TLZwkn"></path><path d="M309.87 522C297.74 522 287.9 512.16 287.9 500.02C287.9 487.9 297.74 478.06 309.87 478.06C321.99 478.06 331.85 487.9 331.85 500.02C331.85 512.16 321.99 522 309.87 522Z" id="a26B9rDKEz"></path><path d="M308.94 505.71C308.15 505.14 307.98 504.04 308.55 503.26C309.12 502.47 310.22 502.29 311 502.86C311.79 503.43 311.96 504.53 311.39 505.32C310.83 506.11 309.72 506.28 308.94 505.71Z" id="a7j0Dp36f"></path><path d="M308.94 505.71C308.15 505.14 307.98 504.04 308.55 503.26C309.12 502.47 310.22 502.29 311 502.86C311.79 503.43 311.96 504.53 311.39 505.32C310.83 506.11 309.72 506.28 308.94 505.71Z" id="c2Xf5Xo4yD"></path><path d="M310.84 503.09L309.22 505.31L301.08 497.82L310.84 503.09Z" id="d1X8NHbyJy"></path><path d="M310.84 503.09L309.22 505.31L301.08 497.82L310.84 503.09Z" id="bMxlZJt"></path><path d="M297.79 511.14C301.89 513.63 304.45 515.17 305.48 515.79C308.27 517.48 311.8 517.36 314.46 515.49C315.31 514.89 317.45 513.4 320.86 511.01C316.24 511.03 300.1 511.13 297.79 511.14Z" id="eyaZUiHOy"></path><path d="M317.83 512.98C317.83 513.87 316.74 514.59 315.39 514.59C314.05 514.59 312.95 513.87 312.95 512.98C312.95 512.1 314.05 511.38 315.39 511.38C316.74 511.38 317.83 512.1 317.83 512.98Z" id="a22FeVTd2"></path><path d="M319.44 511.78C319.44 512.38 317.32 512.88 314.72 512.88C312.11 512.88 310 512.38 310 511.78C310 511.18 312.11 510.69 314.72 510.69C317.32 510.69 319.44 511.18 319.44 511.78Z" id="d2MZ8OalK"></path><path d="M315.1 514.36C315.1 515.39 314.29 516.22 313.3 516.22C312.3 516.22 311.5 515.39 311.5 514.36C311.5 513.33 312.3 512.5 313.3 512.5C314.29 512.5 315.1 513.33 315.1 514.36Z" id="ak8xoIlFW"></path><path d="M312.92 514.34C312.92 515.74 312.17 516.88 311.25 516.88C310.33 516.88 309.58 515.74 309.58 514.34C309.58 512.93 310.33 511.8 311.25 511.8C312.17 511.8 312.92 512.93 312.92 514.34Z" id="a18f5Yh7KG"></path><path d="M310.32 511.93C310.32 512.59 307.79 513.13 304.66 513.13C301.54 513.13 299 512.59 299 511.93C299 511.27 301.54 510.73 304.66 510.73C307.79 510.73 310.32 511.27 310.32 511.93Z" id="a73lTwsiG"></path><path d="M310.3 512.92C310.3 513.46 308.2 513.89 305.63 513.89C303.05 513.89 300.95 513.46 300.95 512.92C300.95 512.39 303.05 511.95 305.63 511.95C308.2 511.95 310.3 512.39 310.3 512.92Z" id="arKM9bmD7"></path><path d="M310.41 513.92C310.41 514.4 308.54 514.8 306.25 514.8C303.96 514.8 302.09 514.4 302.09 513.92C302.09 513.44 303.96 513.05 306.25 513.05C308.54 513.05 310.41 513.44 310.41 513.92Z" id="av9PcEHAk"></path><path d="M310.12 514.78C310.12 515.25 308.83 515.62 307.25 515.62C305.66 515.62 304.38 515.25 304.38 514.78C304.38 514.32 305.66 513.94 307.25 513.94C308.83 513.94 310.12 514.32 310.12 514.78Z" id="a17gSTLx8l"></path><path d="M310.09 515.8C310.09 516.25 309.01 516.61 307.68 516.61C306.34 516.61 305.26 516.25 305.26 515.8C305.26 515.36 306.34 515 307.68 515C309.01 515 310.09 515.36 310.09 515.8Z" id="a2lqa6V8ZS"></path><path d="M310.11 516.45C310.11 516.57 309.78 516.66 309.38 516.66C308.97 516.66 308.64 516.57 308.64 516.45C308.64 516.34 308.97 516.25 309.38 516.25C309.78 516.25 310.11 516.34 310.11 516.45Z" id="h3IJ3isHe"></path><path d="M297.79 511.14C301.89 513.63 304.45 515.17 305.48 515.79C308.27 517.48 311.8 517.36 314.46 515.49C315.31 514.89 317.45 513.4 320.86 511.01C316.24 511.03 300.1 511.13 297.79 511.14Z" id="aDXRCMAdg"></path><path d="M294.25 502.23L288.09 502.23" id="a2IXuwC8p5"></path><path d="M294.49 495.9L288.36 495.37" id="e1bKgunvpN"></path><path d="M296.39 490.95L290.81 488.34" id="d6M1BHN0T3"></path><path d="M300.56 486.73L296.44 482.16" id="bXdnFVJj2"></path><path d="M306.25 484.5L304.86 478.49" id="c1cbgNKXMn"></path><path d="M312.79 484.1L313.55 478" id="bjFQ1wki4"></path><path d="M318.63 486.34L321.7 481.01" id="gHJJ7dmEf"></path><path d="M322.76 490.85L327.74 487.23" id="gPTCHpkF0"></path><path d="M325.26 496.43L331.26 495.05" id="bxQwYRvSs"></path><path d="M325.95 502.82L332.1 502.93" id="e29b2W9JI6"></path><path d="M310 516.55L310 511.55" id="a1iDhRnge"></path></defs><g><g><g><use xlink:href="#ah5TLZwkn" opacity="1" fill="#dda75a" fill-opacity="0.45"></use><g><use xlink:href="#ah5TLZwkn" opacity="1" fill-opacity="0" stroke="#000000" stroke-width="1" stroke-opacity="0"></use></g></g><g><use xlink:href="#a26B9rDKEz" opacity="1" fill="#000000" fill-opacity="0"></use><g><use xlink:href="#a26B9rDKEz" opacity="1" fill-opacity="0" stroke="#0e1107" stroke-width="1" stroke-opacity="1"></use></g></g><g><use xlink:href="#a7j0Dp36f" opacity="1" fill="#000000" fill-opacity="1"></use><g><use xlink:href="#a7j0Dp36f" opacity="1" fill-opacity="0" stroke="#000000" stroke-width="1" stroke-opacity="0"></use></g></g><g><use xlink:href="#c2Xf5Xo4yD" opacity="1" fill="#000000" fill-opacity="0"></use><g><use xlink:href="#c2Xf5Xo4yD" opacity="1" fill-opacity="0" stroke="#0e1107" stroke-width="1" stroke-opacity="1"></use></g></g><g><use xlink:href="#d1X8NHbyJy" opacity="1" fill="#000000" fill-opacity="1"></use><g><use xlink:href="#d1X8NHbyJy" opacity="1" fill-opacity="0" stroke="#000000" stroke-width="1" stroke-opacity="0"></use></g></g><g><use xlink:href="#bMxlZJt" opacity="1" fill="#000000" fill-opacity="0"></use><g><use xlink:href="#bMxlZJt" opacity="1" fill-opacity="0" stroke="#0e1107" stroke-width="1" stroke-opacity="1"></use></g></g><g><use xlink:href="#eyaZUiHOy" opacity="1" fill="#5df809" fill-opacity="0"></use><g><use xlink:href="#eyaZUiHOy" opacity="1" fill-opacity="0" stroke="#000000" stroke-width="1" stroke-opacity="0"></use></g></g><g><use xlink:href="#a22FeVTd2" opacity="1" fill="#adff50" fill-opacity="1"></use></g><g><use xlink:href="#d2MZ8OalK" opacity="1" fill="#adff50" fill-opacity="1"></use></g><g><use xlink:href="#ak8xoIlFW" opacity="1" fill="#adff50" fill-opacity="1"></use></g><g><use xlink:href="#a18f5Yh7KG" opacity="1" fill="#adff50" fill-opacity="1"></use></g><g><use xlink:href="#a73lTwsiG" opacity="1" fill="#ff6d50" fill-opacity="1"></use></g><g><use xlink:href="#arKM9bmD7" opacity="1" fill="#ff6d50" fill-opacity="1"></use></g><g><use xlink:href="#av9PcEHAk" opacity="1" fill="#ff6d50" fill-opacity="1"></use></g><g><use xlink:href="#a17gSTLx8l" opacity="1" fill="#ff6d50" fill-opacity="1"></use></g><g><use xlink:href="#a2lqa6V8ZS" opacity="1" fill="#ff6d50" fill-opacity="1"></use></g><g><use xlink:href="#h3IJ3isHe" opacity="1" fill="#ff6d50" fill-opacity="1"></use></g><g><use xlink:href="#aDXRCMAdg" opacity="1" fill="#000000" fill-opacity="0"></use><g><use xlink:href="#aDXRCMAdg" opacity="1" fill-opacity="0" stroke="#0e1107" stroke-width="1" stroke-opacity="1"></use></g></g><g><use xlink:href="#a2IXuwC8p5" opacity="1" fill="#000000" fill-opacity="0"></use><g><use xlink:href="#a2IXuwC8p5" opacity="1" fill-opacity="0" stroke="#0e1107" stroke-width="1" stroke-opacity="1"></use></g></g><g><use xlink:href="#e1bKgunvpN" opacity="1" fill="#000000" fill-opacity="0"></use><g><use xlink:href="#e1bKgunvpN" opacity="1" fill-opacity="0" stroke="#0e1107" stroke-width="1" stroke-opacity="1"></use></g></g><g><use xlink:href="#d6M1BHN0T3" opacity="1" fill="#000000" fill-opacity="0"></use><g><use xlink:href="#d6M1BHN0T3" opacity="1" fill-opacity="0" stroke="#0e1107" stroke-width="1" stroke-opacity="1"></use></g></g><g><use xlink:href="#bXdnFVJj2" opacity="1" fill="#000000" fill-opacity="0"></use><g><use xlink:href="#bXdnFVJj2" opacity="1" fill-opacity="0" stroke="#0e1107" stroke-width="1" stroke-opacity="1"></use></g></g><g><use xlink:href="#c1cbgNKXMn" opacity="1" fill="#000000" fill-opacity="0"></use><g><use xlink:href="#c1cbgNKXMn" opacity="1" fill-opacity="0" stroke="#0e1107" stroke-width="1" stroke-opacity="1"></use></g></g><g><use xlink:href="#bjFQ1wki4" opacity="1" fill="#000000" fill-opacity="0"></use><g><use xlink:href="#bjFQ1wki4" opacity="1" fill-opacity="0" stroke="#0e1107" stroke-width="1" stroke-opacity="1"></use></g></g><g><use xlink:href="#gHJJ7dmEf" opacity="1" fill="#000000" fill-opacity="0"></use><g><use xlink:href="#gHJJ7dmEf" opacity="1" fill-opacity="0" stroke="#0e1107" stroke-width="1" stroke-opacity="1"></use></g></g><g><use xlink:href="#gPTCHpkF0" opacity="1" fill="#000000" fill-opacity="0"></use><g><use xlink:href="#gPTCHpkF0" opacity="1" fill-opacity="0" stroke="#0e1107" stroke-width="1" stroke-opacity="1"></use></g></g><g><use xlink:href="#bxQwYRvSs" opacity="1" fill="#000000" fill-opacity="0"></use><g><use xlink:href="#bxQwYRvSs" opacity="1" fill-opacity="0" stroke="#0e1107" stroke-width="1" stroke-opacity="1"></use></g></g><g><use xlink:href="#e29b2W9JI6" opacity="1" fill="#000000" fill-opacity="0"></use><g><use xlink:href="#e29b2W9JI6" opacity="1" fill-opacity="0" stroke="#0e1107" stroke-width="1" stroke-opacity="1"></use></g></g><g><use xlink:href="#a1iDhRnge" opacity="1" fill="#000000" fill-opacity="0"></use><g><use xlink:href="#a1iDhRnge" opacity="1" fill-opacity="0" stroke="#0e1107" stroke-width="1" stroke-opacity="1"></use></g></g></g></g></svg>