<?xml version="1.0" encoding="UTF-8" standalone="no"?>
<!DOCTYPE svg PUBLIC "-//W3C//DTD SVG 1.1//EN" "http://www.w3.org/Graphics/SVG/1.1/DTD/svg11.dtd">
<svg version="1.1" xmlns="http://www.w3.org/2000/svg" xmlns:xlink="http://www.w3.org/1999/xlink" preserveAspectRatio="xMidYMid meet" viewBox="100.00000000000001 49.67270992366412 14.610000000000028 45.00000000000001" width="14.61" height="45"><defs><path d="M107.31 49.67C109.22 49.67 110.77 51.22 110.77 53.14C110.77 58.9 110.77 72.7 110.77 78.45C110.77 80.37 109.22 81.92 107.31 81.92C106.61 81.92 108 81.92 107.31 81.92C105.39 81.92 103.84 80.37 103.84 78.45C103.84 72.7 103.84 58.9 103.84 53.14C103.84 51.22 105.39 49.67 107.31 49.67C108 49.67 106.61 49.67 107.31 49.67Z" id="d4BQE23TSC"></path><path d="M114.61 86.97C114.61 91.22 111.34 94.67 107.31 94.67C103.27 94.67 100 91.22 100 86.97C100 82.71 103.27 79.26 107.31 79.26C111.34 79.26 114.61 82.71 114.61 86.97Z" id="a4uvjwuieY"></path><path d="M107.21 54.02L104.19 54.02" id="b1reubTqDp"></path><path d="M107.21 57.56L104.19 57.56" id="d1jYfxxiWl"></path><path d="M107.21 61.09L104.19 61.09" id="a5hTDvIKwR"></path><path d="M107.21 64.62L104.19 64.62" id="a2WieCbMtk"></path><path d="M107.21 68.15L104.19 68.15" id="e6PQGB1GNN"></path><path d="M107.21 71.69L104.19 71.69" id="cIYR893a6"></path><path d="M107.21 75.22L104.19 75.22" id="d5fffV4xaM"></path></defs><g><g><g><use xlink:href="#d4BQE23TSC" opacity="1" fill="#9b4239" fill-opacity="0"></use><g><use xlink:href="#d4BQE23TSC" opacity="1" fill-opacity="0" stroke="#0e1107" stroke-width="1" stroke-opacity="1"></use></g></g><g><use xlink:href="#a4uvjwuieY" opacity="1" fill="#c00000" fill-opacity="1"></use><g><use xlink:href="#a4uvjwuieY" opacity="1" fill-opacity="0" stroke="#0e1107" stroke-width="1" stroke-opacity="1"></use></g></g><g><g><use xlink:href="#b1reubTqDp" opacity="1" fill-opacity="0" stroke="#0e1107" stroke-width="1" stroke-opacity="1"></use></g></g><g><g><use xlink:href="#d1jYfxxiWl" opacity="1" fill-opacity="0" stroke="#0e1107" stroke-width="1" stroke-opacity="1"></use></g></g><g><g><use xlink:href="#a5hTDvIKwR" opacity="1" fill-opacity="0" stroke="#0e1107" stroke-width="1" stroke-opacity="1"></use></g></g><g><g><use xlink:href="#a2WieCbMtk" opacity="1" fill-opacity="0" stroke="#0e1107" stroke-width="1" stroke-opacity="1"></use></g></g><g><g><use xlink:href="#e6PQGB1GNN" opacity="1" fill-opacity="0" stroke="#0e1107" stroke-width="1" stroke-opacity="1"></use></g></g><g><g><use xlink:href="#cIYR893a6" opacity="1" fill-opacity="0" stroke="#0e1107" stroke-width="1" stroke-opacity="1"></use></g></g><g><g><use xlink:href="#d5fffV4xaM" opacity="1" fill-opacity="0" stroke="#0e1107" stroke-width="1" stroke-opacity="1"></use></g></g></g></g></svg>