<?xml version="1.0" encoding="UTF-8" standalone="no"?>
<!DOCTYPE svg PUBLIC "-//W3C//DTD SVG 1.1//EN" "http://www.w3.org/Graphics/SVG/1.1/DTD/svg11.dtd">
<svg version="1.1" xmlns="http://www.w3.org/2000/svg" xmlns:xlink="http://www.w3.org/1999/xlink" preserveAspectRatio="xMidYMid meet" viewBox="317.9999678169982 45.34 64.00006436600353 44.66" width="64" height="44.66"><defs><path d="M356.78 53.43C356.78 57.9 353.15 61.53 348.68 61.53C344.22 61.53 340.59 57.9 340.59 53.43C340.59 48.97 344.22 45.34 348.68 45.34C353.15 45.34 356.78 48.97 356.78 53.43Z" id="f2ymFdi9hf"></path><mask id="maska8UGPe2r6" x="338.59" y="43.34" width="20.19" height="20.19" maskUnits="userSpaceOnUse"><rect x="338.59" y="43.34" width="20.19" height="20.19" fill="white"></rect><use xlink:href="#f2ymFdi9hf" opacity="1" fill="black"></use></mask><path d="M381.72 86.56C382.55 88.12 381.42 90 379.65 90C367 90 333.17 90 320.57 90C318.66 90 317.42 87.99 318.27 86.28C321.1 80.63 328.11 66.6 331.04 60.75C331.87 59.08 333.58 58.03 335.44 58.03C341.67 58.03 357.09 58.03 363.27 58.03C365.3 58.03 367.16 59.15 368.12 60.94C371.2 66.75 378.69 80.85 381.72 86.56Z" id="c5G9ViXyF"></path><path d="M356.78 53.43C356.78 57.9 353.15 61.53 348.68 61.53C344.22 61.53 340.59 57.9 340.59 53.43C340.59 48.97 344.22 45.34 348.68 45.34C353.15 45.34 356.78 48.97 356.78 53.43Z" id="eHVLKCKc5"></path><path d="M351.63 52.43C351.63 54.2 350.2 55.63 348.43 55.63C346.67 55.63 345.24 54.2 345.24 52.43C345.24 50.67 346.67 49.24 348.43 49.24C350.2 49.24 351.63 50.67 351.63 52.43Z" id="c3epUYqisf"></path></defs><g><g><g><use xlink:href="#f2ymFdi9hf" opacity="1" fill="#666666" fill-opacity="1"></use><g mask="url(#maska8UGPe2r6)"><use xlink:href="#f2ymFdi9hf" opacity="1" fill-opacity="0" stroke="#0e1107" stroke-width="2" stroke-opacity="1"></use></g></g><g><use xlink:href="#c5G9ViXyF" opacity="1" fill="#666666" fill-opacity="1"></use><g><use xlink:href="#c5G9ViXyF" opacity="1" fill-opacity="0" stroke="#0e1107" stroke-width="1" stroke-opacity="1"></use></g></g><g><use xlink:href="#eHVLKCKc5" opacity="1" fill="#666666" fill-opacity="1"></use></g><g><use xlink:href="#c3epUYqisf" opacity="1" fill="#ffffff" fill-opacity="1"></use><g><use xlink:href="#c3epUYqisf" opacity="1" fill-opacity="0" stroke="#0e1107" stroke-width="1" stroke-opacity="1"></use></g></g></g></g></svg>